# xmcd
#
# Track frame offsets:
#	150
#	15615
#	29601
#	41922
#	56407
#	68346
#	82350
#	96213
#	112458
#	130898
#
# Disc length: 1877 seconds
#
# Revision: 0
# Processed by: cddbd v1.5.2PL0 Copyright (c) Steve Scherf et al.
# Submitted via: audiograbber 1.83.01
#
DISCID=8e07530a
DTITLE=Leah Durelle - 9 days in Nashville
DYEAR=2006
DGENRE=Country
TTITLE0=Suspicious Mind
TTITLE1=Shape Up Heart
TTITLE2=Long Gone Lonesome Blues
TTITLE3=When You Love Someboddy
TTITLE4=Before The Next Teardrop Falls
TTITLE5=I´m Not Sorry
TTITLE6=Heartaches By The Number
TTITLE7=I´m Comming Back Cowboy
TTITLE8=Unchained Melody
TTITLE9=If I Could Only Learn To Yodel
EXTD=
EXTT0=
EXTT1=
EXTT2=
EXTT3=
EXTT4=
EXTT5=
EXTT6=
EXTT7=
EXTT8=
EXTT9=
PLAYORDER=
